<?xml version="1.0" encoding="utf-8"?><!DOCTYPE svg PUBLIC "-//W3C//DTD SVG 1.1//EN" "http://www.w3.org/Graphics/SVG/1.1/DTD/svg11.dtd"><svg version="1.1" xmlns="http://www.w3.org/2000/svg" width="25" height="37" viewBox="0 0 25 37"><g fill="#f6f5f4"><g><rect fill="#4b473f" width="25" height="37" /></g><g transform="scale(0.057,0.057) translate(63,63)"><path d="M 228 10.4 L 227 11.65 L 223.95 17 L 222.65 25.15 L 215.55 47.55 L 210.95 52.35 L 205.35 55.4 L 202.55 56.45 L 193.4 58.7 L 188.3 57.95 L 183.5 58.45 L 178.9 59.5 L 167.95 63.05 L 163.65 63.55 L 161.6 63.55 L 157.05 62.55 L 152.2 64.05 L 147.6 64.6 L 142.8 64.3 L 128.8 62.55 L 123.95 62.55 L 119.1 63.3 L 109.2 62.05 L 94.7 58.45 L 86.05 54.15 L 81.95 51.35 L 81.45 49.05 L 80.45 46.5 L 76.65 39.4 L 75.85 35.3 L 75.85 34.05 L 76.4 31 L 75.1 28.45 L 73.05 19.55 L 71.8 6.85 L 70.8 5.85 L 68.75 2.8 L 66.45 0.25 L 65.7 0 L 65.2 0 L 64.4 0.25 L 63.9 0.75 L 63.15 1.8 L 62.65 3.05 L 62.4 8.4 L 62.9 10.9 L 63.4 12.15 L 64.4 13.45 L 64.4 16.5 L 65.7 25.65 L 69 37.35 L 69.75 42.7 L 72.8 55.65 L 73.85 57.95 L 77.65 64.6 L 81.45 68.15 L 85.8 70.7 L 88.6 71.7 L 110.2 73.75 L 121.4 74.25 L 132.1 73.75 L 134.15 74.5 L 135.9 75.5 L 138.45 78.3 L 140 81.85 L 140.75 85.65 L 141.75 99.65 L 142.25 101.4 L 140.5 104.2 L 138.2 106.5 L 132.85 109.8 L 129.8 110.85 L 120.15 112.6 L 118.6 111.85 L 117.1 111.35 L 111.25 110.85 L 95.95 112.6 L 86.55 111.35 L 77.4 110.85 L 58.8 110.6 L 57.05 109.05 L 55.5 108.05 L 54 107.5 L 52.45 107.25 L 50.95 107.5 L 49.4 108.05 L 46.6 109.3 L 43.8 111.1 L 42.3 111.85 L 40.75 112.35 L 37.45 112.85 L 35.65 112.35 L 33.9 111.6 L 33.4 110.85 L 32.6 110.3 L 29.8 109.3 L 29.05 108.8 L 28.3 108.05 L 28.3 107 L 26.25 105.75 L 22.2 104.45 L 20.15 104.45 L 14.55 105.75 L 9.4 108.8 L 0.25 116.15 L 0 118.2 L 0.25 119.75 L 0.75 121.25 L 4.35 124.55 L 5.6 125.35 L 6.85 126.35 L 21.15 127.35 L 28.3 127.1 L 35.65 125.6 L 43.8 126.1 L 85.05 125.35 L 102.35 126.35 L 117.35 123.55 L 119.9 124.05 L 131.35 124.8 L 136.95 126.6 L 138.2 127.35 L 139.45 128.4 L 140.75 130.4 L 142.25 135 L 143.55 142.1 L 144.05 167.25 L 143.3 167.25 L 142.8 174.4 L 144.05 196.75 L 143.55 199.55 L 143.8 205.15 L 145.05 210.5 L 145.35 214.6 L 144.8 216.85 L 144.05 218.1 L 144.55 219.6 L 144.3 221.4 L 143.3 223.7 L 144.55 242.25 L 145.05 261.35 L 145.05 280.45 L 146.1 298.7 L 145.35 301.75 L 144.55 310.9 L 145.05 329.75 L 144.55 341.95 L 143.3 348.05 L 141.75 350.1 L 137.95 353.65 L 133.9 355.95 L 131.85 356.7 L 129.55 356.7 L 127.5 356.45 L 125.5 355.7 L 123.45 355.45 L 121.4 355.45 L 109.2 356.9 L 105.4 356.7 L 103.6 356.2 L 102.05 355.45 L 100.55 354.4 L 99 352.9 L 97.75 350.85 L 96.5 335.85 L 94.2 328.7 L 90.9 324.15 L 89.35 322.85 L 86.55 325.65 L 85.8 337.9 L 87.85 361.75 L 87.55 373.95 L 91.15 409.55 L 92.15 416.45 L 94.7 426.3 L 95.95 429.6 L 98 430.65 L 106.4 437 L 110.2 438.5 L 111.5 438.8 L 114.55 438.8 L 118.6 440.55 L 123.2 441.85 L 132.35 443.35 L 146.6 442.6 L 151.7 441.6 L 152.45 441.05 L 153.45 440.8 L 154.5 441.05 L 155.25 441.6 L 183.25 437 L 187.55 434.45 L 191.65 431.4 L 195.2 427.85 L 199.75 421.55 L 202.8 414.4 L 204.1 409.05 L 204.35 403.45 L 205.1 398.4 L 205.6 381.6 L 205.35 358.95 L 204.1 354.9 L 203.85 352.9 L 204.35 333.55 L 204.1 331.5 L 202.8 327.7 L 201.55 325.65 L 200.55 325.15 L 196.45 322.1 L 195.45 321.6 L 194.45 321.6 L 193.4 322.1 L 192.15 323.9 L 191.4 325.65 L 190.6 329.75 L 190.6 331.75 L 191.65 341.95 L 191.1 345.5 L 190.35 347.3 L 189.35 348.8 L 187.8 350.35 L 185.8 351.6 L 174.6 352.65 L 166.95 352.65 L 163.4 352.1 L 160.1 350.85 L 158.55 350.1 L 157.05 348.8 L 156.25 345.25 L 155.5 337.6 L 156.25 318.3 L 157.3 307.35 L 156.5 285.25 L 157.05 273.8 L 156.5 271.8 L 155.75 265.15 L 156.5 251.7 L 156.25 242.75 L 155.25 238.7 L 155 235.65 L 155.5 222.65 L 155.25 219.6 L 154.5 216.35 L 153.45 213.55 L 154.25 211.3 L 155 206.45 L 155 196.25 L 155.25 194.25 L 155 191.95 L 155.5 178.95 L 154.75 172.1 L 154.75 167.5 L 155.75 158.1 L 155.75 151.25 L 154.75 146.95 L 153.7 144.9 L 152.45 143.15 L 150.65 141.35 L 149.9 139.85 L 149.65 138.55 L 149.9 137.55 L 150.4 136.25 L 152.7 134 L 155.25 131.95 L 155.75 129.4 L 156.25 128.15 L 156.75 127.35 L 157.55 126.6 L 158.55 125.85 L 160.6 124.8 L 167.95 122.8 L 170 121.75 L 172.55 122.8 L 184 124.3 L 193.4 123.55 L 196.45 122.8 L 199.75 122.55 L 213.25 122.8 L 216.8 122.55 L 220.15 121.75 L 222.4 120.25 L 224.7 119.75 L 234.65 121.5 L 238.45 120.75 L 239.7 120 L 242.5 121.25 L 248.85 122.3 L 250.4 122.8 L 251.65 123.55 L 260.3 122.55 L 268.95 122.8 L 282 122.55 L 286.05 121.75 L 287.85 121 L 288.85 120 L 289.1 119.5 L 289.1 118.45 L 288.85 116.15 L 288.35 114.9 L 287.6 113.65 L 286.6 112.6 L 284.3 111.1 L 283 110.6 L 271.05 108.8 L 268.45 107.8 L 256.75 109.8 L 221.15 111.6 L 214 110.6 L 199.75 110.85 L 178.9 113.1 L 168.2 113.65 L 164.65 113.35 L 157.05 109.8 L 156 108.3 L 155.5 107 L 155.25 105.5 L 155.25 103.95 L 156.5 96.35 L 155 84.1 L 155 81.3 L 155.5 78.8 L 157.05 76.3 L 158.3 75.25 L 162.35 72.95 L 165.4 72.2 L 177.4 71.95 L 184.5 71.2 L 197.5 71.2 L 210.45 70.15 L 214.55 68.9 L 215.55 68.9 L 216.55 68.4 L 219.35 66.1 L 220.65 65.35 L 221.65 65.1 L 222.9 65.35 L 226.25 62.8 L 229.05 59.25 L 230.8 55.15 L 231.3 50.35 L 236.65 27.7 L 237.45 21.85 L 237.15 16.5 L 236.4 13.7 L 234.1 9.15 L 232.35 6.85 L 230.55 7.9 L 228 10.4 M 115.3 366.85 L 125.25 366.55 L 131.6 366.85 L 144.55 366.55 L 151.2 365.55 L 158.05 363.8 L 173.55 364.8 L 176.35 364.55 L 182.2 362.75 L 185 363.5 L 188.6 365.55 L 189.35 366.3 L 190.1 367.35 L 190.6 368.35 L 191.1 371.15 L 191.65 379.8 L 191.4 385.15 L 188.6 405.75 L 188.6 411.1 L 187.3 414.9 L 186.55 416.2 L 184.5 418.2 L 183.5 419 L 182.2 419.25 L 178.65 421.3 L 170.75 424.6 L 162.65 426.8 L 146.85 429.1 L 125.5 428.1 L 121.9 428.6 L 117.1 427.6 L 110.2 424.35 L 106.15 420.75 L 104.35 418.5 L 99.55 398.1 L 100.55 393.3 L 100.05 391.25 L 99.55 390.5 L 100.3 389.2 L 100.8 387.7 L 101.05 386.15 L 101.05 384.65 L 100.3 378.55 L 100.3 373.95 L 100.55 372.7 L 101.3 371.4 L 102.35 370.4 L 105.15 368.35 L 115.3 366.85"></path><path d="M 201.05 157.85 L 194.95 157.35 L 193.4 157.1 L 192.15 158.6 L 191.1 160.4 L 190.6 163.2 L 190.85 164.7 L 191.65 166 L 192.65 167 L 194.15 168 L 206.15 171.6 L 218.35 174.65 L 241.5 182 L 244.05 183.3 L 248.85 186.35 L 253.45 190.15 L 259.05 196.75 L 260.6 199.05 L 263.1 204.15 L 265.15 209.5 L 266.45 215.35 L 266.7 218.1 L 268.2 221.65 L 268.7 224.7 L 268.45 226.5 L 268.45 228 L 266.45 233.85 L 264.9 236.65 L 262.85 242.25 L 260.85 243.3 L 259.05 244.55 L 256.75 248.1 L 254.2 251.15 L 253.2 251.7 L 252.45 252.2 L 251.15 252.45 L 249.9 252.45 L 248.1 251.7 L 245.3 249.4 L 243 246.35 L 240.75 241.25 L 239.45 240.25 L 238.45 238.95 L 236.9 235.9 L 235.9 234.4 L 233.85 232.1 L 232.35 231.05 L 213.75 215.6 L 207.65 212.8 L 203.1 211.8 L 200.8 211.8 L 198 209.75 L 192.15 206.95 L 186.05 204.9 L 176.6 203.4 L 176.1 206.2 L 176.6 207.95 L 177.15 208.75 L 177.9 209.5 L 179.65 210.5 L 183.75 212.3 L 185.5 213.55 L 186.8 215.35 L 200.05 221.15 L 209.2 225.75 L 215.3 230.3 L 217.05 232.35 L 220.15 236.65 L 226 240.5 L 228.8 243.3 L 233.35 249.15 L 236.65 255.75 L 237.95 259.05 L 237.7 260.6 L 237.15 262.1 L 235.15 264.4 L 230.3 268.2 L 223.95 269.5 L 205.35 272.05 L 202.8 273.05 L 201.55 273.05 L 200.3 273.3 L 195.2 272.55 L 187.55 270.25 L 185 270 L 184 270.5 L 183.25 273.05 L 183.5 274.85 L 183.25 275.85 L 183.25 276.6 L 193.65 279.15 L 199 279.9 L 203.1 279.15 L 204.35 278.4 L 206.9 279.4 L 211.45 280.15 L 216.05 280.15 L 231.3 277.65 L 235.9 277.65 L 240.75 278.4 L 244.55 282.45 L 246.1 285 L 250.9 297.95 L 251.95 317.5 L 252.45 321.35 L 254.45 328.45 L 253.95 330 L 253.45 333.05 L 256.5 348.05 L 256 351.1 L 255.5 352.65 L 256 354.4 L 256.5 361.75 L 256.25 372.45 L 256.75 380.05 L 257.25 382.35 L 257 382.35 L 256.75 382.6 L 256.5 383.35 L 256.5 385.15 L 257.55 396.1 L 258.05 407.3 L 257.8 429.35 L 253.7 473.15 L 252.2 481.25 L 247.6 497 L 247.1 501.05 L 247.1 505.65 L 248.85 509.45 L 249.65 510.5 L 250.4 511.25 L 251.4 511.75 L 252.7 512 L 258.8 504.35 L 260.05 502.35 L 260.85 499.05 L 260.85 498 L 260.6 496.75 L 260.05 495.25 L 261.35 491.95 L 262.1 488.15 L 264.65 465.75 L 264.65 461.4 L 267.7 440.55 L 267.95 436.5 L 267.45 432.15 L 267.95 426.3 L 267.95 414.15 L 268.45 408.3 L 267.45 403.2 L 267.2 397.85 L 267.45 385.9 L 266.2 382.6 L 265.9 380.8 L 265.9 379.05 L 267.2 365.8 L 267.2 364.3 L 266.95 362.5 L 266.45 360.7 L 265.65 358.95 L 266.7 356.45 L 266.95 354.9 L 266.7 350.6 L 264.9 341.95 L 264.65 335.85 L 265.65 327.45 L 265.15 323.9 L 264.65 322.1 L 265.15 318.05 L 264.9 313.95 L 261.85 298.2 L 261.6 293.85 L 261.85 289.55 L 259.55 286 L 258.05 281.95 L 256.5 273.8 L 255.5 271.8 L 255 270.25 L 255 268.7 L 255.25 267.45 L 255.75 266.45 L 256.5 265.4 L 261.1 261.85 L 262.1 260.85 L 263.65 258.55 L 264.15 257 L 264.15 255.25 L 263.9 253.45 L 265.4 251.4 L 268.45 249.4 L 270.75 248.9 L 272.1 248.9 L 272.6 238.2 L 272.1 236.65 L 272.6 235.4 L 273.35 234.1 L 275.4 232.1 L 280.45 228.25 L 276.4 207.2 L 272.1 194.75 L 266.95 186.6 L 260.05 179.2 L 227.5 166.25 L 220.9 164.2 L 207.15 161.65 L 206.9 160.9 L 206.15 160.15 L 204.85 159.1 L 203.1 158.35 L 201.05 157.85"></path><path d="M 31.35 184.8 L 29.3 188.1 L 21.4 196 L 18.9 200.35 L 18.6 202.1 L 18.6 203.9 L 19.9 207.95 L 18.1 215.1 L 17.35 222.15 L 18.35 232.85 L 21.4 243.05 L 26 252.95 L 31.85 261.85 L 32.6 267.2 L 32.35 270 L 30.6 277.65 L 29.05 282.2 L 28.3 287.3 L 28.55 298.45 L 28.3 300.75 L 27.25 303 L 26.75 305.55 L 25.75 315.25 L 25.25 317.8 L 24.5 320.05 L 23.45 329.25 L 21.95 338.15 L 20.4 358.45 L 19.65 364.3 L 19.65 365.8 L 19.9 367.35 L 18.6 373.7 L 18.35 380.05 L 18.9 392.55 L 18.1 395.6 L 17.1 404.75 L 17.85 434.45 L 17.1 440.55 L 18.9 479.5 L 18.6 484.3 L 18.9 486.6 L 21.4 495 L 21.7 497.25 L 22.2 498 L 22.7 498.5 L 23.95 498.5 L 24.75 498 L 25.25 497.5 L 26.25 496.25 L 26.25 478.7 L 26 476.7 L 26.25 471.35 L 28.55 457.6 L 28.3 456.1 L 28.3 454.3 L 27.25 450.75 L 28.55 417.45 L 28.3 384.15 L 27.8 380.55 L 28.3 372.95 L 29.55 365.3 L 29.8 357.4 L 29.55 355.45 L 29.05 353.65 L 30.05 350.35 L 31.35 343.75 L 32.35 319.8 L 33.4 306.05 L 34.65 299.7 L 34.4 298.45 L 34.4 296.9 L 35.65 291.05 L 39.25 281.45 L 40.25 276.35 L 40.25 274.85 L 42.3 272.3 L 43.3 271.25 L 46.35 269.75 L 48.15 269.75 L 50.15 270 L 52.2 270.75 L 62.4 277.1 L 64.4 278.15 L 66.95 278.65 L 69.25 278.65 L 70.55 278.4 L 73.3 277.35 L 74.6 276.6 L 77.4 278.15 L 80.45 279.15 L 86.55 280.45 L 89.85 280.45 L 95.7 279.4 L 98.75 278.4 L 98.75 277.35 L 100.55 274.85 L 101.3 274.05 L 101.3 272.8 L 100.55 272.05 L 91.4 270 L 81.95 266.45 L 80.2 266.95 L 78.4 266.95 L 76.9 266.45 L 75.6 265.4 L 71.55 265.65 L 67.45 265.4 L 60.1 263.65 L 53.2 260.85 L 46.85 257 L 46.85 255.75 L 47.35 253.45 L 49.4 250.4 L 51.45 248.9 L 55.5 242.25 L 62.9 233.35 L 71.3 225.75 L 77.4 221.15 L 96.75 209 L 97.75 208.75 L 99.3 207.2 L 99.3 205.95 L 98.75 205.15 L 79.2 209.75 L 66.2 221.65 L 61.6 224.7 L 60.85 226 L 59.85 227 L 57.3 228.8 L 55.5 230.55 L 55.5 232.35 L 56 233.1 L 54.25 233.85 L 52.7 234.9 L 50.45 237.7 L 48.65 240.75 L 47.65 242 L 46.85 243.3 L 45.1 244.3 L 39.75 250.15 L 36.7 251.7 L 34.65 251.7 L 32.85 250.15 L 31.35 248.35 L 27.55 240.5 L 26.75 238.45 L 25.5 236.65 L 24.2 226.5 L 25 210.25 L 26.25 205.15 L 29.55 198.05 L 31.1 196 L 41.25 187.85 L 58.55 176.65 L 86.3 162.15 L 90.35 159.65 L 92.15 157.85 L 85.8 158.35 L 81.45 159.35 L 77.9 161.4 L 76.4 162.7 L 75.35 162.45 L 74.1 162.45 L 69.5 163.7 L 68.25 163.7 L 67.2 163.45 L 52.7 169.05 L 43.8 174.15 L 31.85 183.05 L 31.35 184.8"></path></g></g></svg>